<mxfile host="Electron" modified="2023-05-11T10:22:19.547Z" agent="Mozilla/5.0 (Macintosh; Intel Mac OS X 10_15_7) AppleWebKit/537.36 (KHTML, like Gecko) draw.io/21.2.8 Chrome/112.0.5615.165 Electron/24.2.0 Safari/537.36" etag="51vUnpanSow64iY7TXbn" version="21.2.8" type="device">
  <diagram name="Page-1" id="-ehbrMDcGk8Br0xbLhQl">
    <mxGraphModel dx="1239" dy="1098" grid="1" gridSize="10" guides="1" tooltips="1" connect="1" arrows="1" fold="1" page="1" pageScale="1" pageWidth="1169" pageHeight="827" math="0" shadow="0">
      <root>
        <mxCell id="0" />
        <mxCell id="1" parent="0" />
        <mxCell id="TYAT_m3Qwc5HiXnAlvp4-101" value="" style="rounded=0;whiteSpace=wrap;strokeWidth=2;fontSize=16;fillColor=#f5f5f5;dashed=1;fontColor=#333333;strokeColor=default;" parent="1" vertex="1">
          <mxGeometry x="738" y="140" width="420" height="450" as="geometry" />
        </mxCell>
        <mxCell id="TYAT_m3Qwc5HiXnAlvp4-100" value="" style="rounded=0;whiteSpace=wrap;html=1;strokeWidth=2;fontSize=16;fillColor=#f5f5f5;dashed=1;fontColor=#333333;strokeColor=default;" parent="1" vertex="1">
          <mxGeometry x="288" y="100" width="390" height="260" as="geometry" />
        </mxCell>
        <mxCell id="TYAT_m3Qwc5HiXnAlvp4-6" style="edgeStyle=orthogonalEdgeStyle;rounded=0;orthogonalLoop=1;jettySize=auto;html=1;exitX=0;exitY=0.5;exitDx=0;exitDy=0;exitPerimeter=0;entryX=0;entryY=0.5;entryDx=0;entryDy=0;entryPerimeter=0;endArrow=none;endFill=0;strokeWidth=2;fontSize=16;" parent="1" source="TYAT_m3Qwc5HiXnAlvp4-1" target="TYAT_m3Qwc5HiXnAlvp4-2" edge="1">
          <mxGeometry relative="1" as="geometry">
            <Array as="points">
              <mxPoint x="917" y="359" />
              <mxPoint x="917" y="359" />
            </Array>
          </mxGeometry>
        </mxCell>
        <mxCell id="TYAT_m3Qwc5HiXnAlvp4-1" value="" style="verticalLabelPosition=bottom;shadow=0;dashed=0;align=center;html=1;verticalAlign=top;shape=mxgraph.electrical.transistors.pmos;pointerEvents=1;strokeWidth=2;fontSize=16;" parent="1" vertex="1">
          <mxGeometry x="917" y="279" width="60" height="100" as="geometry" />
        </mxCell>
        <mxCell id="TYAT_m3Qwc5HiXnAlvp4-2" value="" style="verticalLabelPosition=bottom;shadow=0;dashed=0;align=center;html=1;verticalAlign=top;shape=mxgraph.electrical.transistors.nmos;pointerEvents=1;strokeWidth=2;fontSize=16;" parent="1" vertex="1">
          <mxGeometry x="917" y="359" width="60" height="100" as="geometry" />
        </mxCell>
        <mxCell id="TYAT_m3Qwc5HiXnAlvp4-19" style="edgeStyle=orthogonalEdgeStyle;rounded=0;orthogonalLoop=1;jettySize=auto;html=1;exitX=0;exitY=0.5;exitDx=0;exitDy=0;exitPerimeter=0;entryX=0.514;entryY=0.664;entryDx=0;entryDy=0;entryPerimeter=0;endArrow=none;endFill=0;strokeWidth=2;fontSize=16;" parent="1" source="TYAT_m3Qwc5HiXnAlvp4-3" target="TYAT_m3Qwc5HiXnAlvp4-18" edge="1">
          <mxGeometry relative="1" as="geometry">
            <Array as="points">
              <mxPoint x="777" y="489" />
            </Array>
          </mxGeometry>
        </mxCell>
        <mxCell id="TYAT_m3Qwc5HiXnAlvp4-3" value="" style="verticalLabelPosition=bottom;shadow=0;dashed=0;align=center;html=1;verticalAlign=top;shape=mxgraph.electrical.transistors.nmos;pointerEvents=1;strokeWidth=2;fontSize=16;" parent="1" vertex="1">
          <mxGeometry x="917" y="439" width="60" height="100" as="geometry" />
        </mxCell>
        <mxCell id="TYAT_m3Qwc5HiXnAlvp4-4" value="" style="verticalLabelPosition=bottom;shadow=0;dashed=0;align=center;html=1;verticalAlign=top;shape=mxgraph.electrical.transistors.pmos;pointerEvents=1;strokeWidth=2;fontSize=16;" parent="1" vertex="1">
          <mxGeometry x="917" y="199" width="60" height="100" as="geometry" />
        </mxCell>
        <mxCell id="TYAT_m3Qwc5HiXnAlvp4-8" value="" style="verticalLabelPosition=bottom;shadow=0;dashed=0;align=center;html=1;verticalAlign=top;shape=mxgraph.electrical.transistors.pmos;pointerEvents=1;strokeWidth=2;fontSize=16;" parent="1" vertex="1">
          <mxGeometry x="777" y="159" width="60" height="100" as="geometry" />
        </mxCell>
        <mxCell id="TYAT_m3Qwc5HiXnAlvp4-12" value="" style="pointerEvents=1;verticalLabelPosition=bottom;shadow=0;dashed=0;align=center;html=1;verticalAlign=top;shape=mxgraph.electrical.signal_sources.protective_earth;strokeWidth=2;fontSize=16;" parent="1" vertex="1">
          <mxGeometry x="826" y="332" width="22" height="20" as="geometry" />
        </mxCell>
        <mxCell id="TYAT_m3Qwc5HiXnAlvp4-15" value="" style="endArrow=none;html=1;rounded=0;entryX=0;entryY=0.5;entryDx=0;entryDy=0;entryPerimeter=0;exitDx=0;exitDy=0;exitPerimeter=0;strokeWidth=2;fontSize=16;" parent="1" source="TYAT_m3Qwc5HiXnAlvp4-77" target="TYAT_m3Qwc5HiXnAlvp4-8" edge="1">
          <mxGeometry width="50" height="50" relative="1" as="geometry">
            <mxPoint x="667" y="279" as="sourcePoint" />
            <mxPoint x="717" y="229" as="targetPoint" />
          </mxGeometry>
        </mxCell>
        <mxCell id="TYAT_m3Qwc5HiXnAlvp4-16" value="" style="shape=waypoint;sketch=0;fillStyle=solid;size=6;pointerEvents=1;points=[];fillColor=none;resizable=0;rotatable=0;perimeter=centerPerimeter;snapToPoint=1;strokeWidth=2;fontSize=16;" parent="1" vertex="1">
          <mxGeometry x="907" y="398" width="20" height="20" as="geometry" />
        </mxCell>
        <mxCell id="TYAT_m3Qwc5HiXnAlvp4-17" value="" style="endArrow=none;html=1;rounded=0;entryDx=0;entryDy=0;entryPerimeter=0;exitX=0;exitY=0.5;exitDx=0;exitDy=0;exitPerimeter=0;strokeWidth=2;fontSize=16;" parent="1" target="TYAT_m3Qwc5HiXnAlvp4-18" edge="1">
          <mxGeometry width="50" height="50" relative="1" as="geometry">
            <mxPoint x="777" y="289" as="sourcePoint" />
            <mxPoint x="777" y="209" as="targetPoint" />
          </mxGeometry>
        </mxCell>
        <mxCell id="TYAT_m3Qwc5HiXnAlvp4-18" value="" style="shape=waypoint;sketch=0;fillStyle=solid;size=6;pointerEvents=1;points=[];fillColor=none;resizable=0;rotatable=0;perimeter=centerPerimeter;snapToPoint=1;strokeWidth=2;fontSize=16;" parent="1" vertex="1">
          <mxGeometry x="767" y="279" width="20" height="20" as="geometry" />
        </mxCell>
        <mxCell id="TYAT_m3Qwc5HiXnAlvp4-20" value="" style="verticalLabelPosition=bottom;shadow=0;dashed=0;align=center;html=1;verticalAlign=top;shape=mxgraph.electrical.transistors.nmos;pointerEvents=1;strokeWidth=2;fontSize=16;" parent="1" vertex="1">
          <mxGeometry x="777" y="239" width="60" height="100" as="geometry" />
        </mxCell>
        <mxCell id="TYAT_m3Qwc5HiXnAlvp4-22" value="" style="endArrow=none;html=1;rounded=0;strokeWidth=3;fontSize=16;" parent="1" edge="1">
          <mxGeometry width="50" height="50" relative="1" as="geometry">
            <mxPoint x="817" y="159" as="sourcePoint" />
            <mxPoint x="997" y="159" as="targetPoint" />
          </mxGeometry>
        </mxCell>
        <mxCell id="TYAT_m3Qwc5HiXnAlvp4-25" value="" style="endArrow=none;html=1;rounded=0;exitX=1;exitY=0;exitDx=0;exitDy=0;exitPerimeter=0;strokeWidth=2;fontSize=16;" parent="1" source="TYAT_m3Qwc5HiXnAlvp4-8" edge="1">
          <mxGeometry width="50" height="50" relative="1" as="geometry">
            <mxPoint x="887" y="299" as="sourcePoint" />
            <mxPoint x="837" y="159" as="targetPoint" />
          </mxGeometry>
        </mxCell>
        <mxCell id="TYAT_m3Qwc5HiXnAlvp4-27" value="" style="endArrow=none;html=1;rounded=0;exitX=1;exitY=0;exitDx=0;exitDy=0;exitPerimeter=0;strokeWidth=2;fontSize=16;" parent="1" source="TYAT_m3Qwc5HiXnAlvp4-4" edge="1">
          <mxGeometry width="50" height="50" relative="1" as="geometry">
            <mxPoint x="877" y="249" as="sourcePoint" />
            <mxPoint x="977" y="159" as="targetPoint" />
          </mxGeometry>
        </mxCell>
        <mxCell id="TYAT_m3Qwc5HiXnAlvp4-28" value="" style="shape=waypoint;sketch=0;fillStyle=solid;size=6;pointerEvents=1;points=[];fillColor=none;resizable=0;rotatable=0;perimeter=centerPerimeter;snapToPoint=1;strokeWidth=2;fontSize=16;" parent="1" vertex="1">
          <mxGeometry x="827" y="239" width="20" height="20" as="geometry" />
        </mxCell>
        <mxCell id="TYAT_m3Qwc5HiXnAlvp4-29" value="" style="endArrow=none;html=1;rounded=0;entryX=0;entryY=0.5;entryDx=0;entryDy=0;entryPerimeter=0;exitX=0.608;exitY=0.508;exitDx=0;exitDy=0;exitPerimeter=0;strokeWidth=2;fontSize=16;" parent="1" source="TYAT_m3Qwc5HiXnAlvp4-28" target="TYAT_m3Qwc5HiXnAlvp4-4" edge="1">
          <mxGeometry width="50" height="50" relative="1" as="geometry">
            <mxPoint x="877" y="309" as="sourcePoint" />
            <mxPoint x="927" y="259" as="targetPoint" />
          </mxGeometry>
        </mxCell>
        <mxCell id="TYAT_m3Qwc5HiXnAlvp4-30" value="" style="pointerEvents=1;verticalLabelPosition=bottom;shadow=0;dashed=0;align=center;html=1;verticalAlign=top;shape=mxgraph.electrical.signal_sources.protective_earth;strokeWidth=2;fontSize=16;" parent="1" vertex="1">
          <mxGeometry x="966" y="531" width="22" height="20" as="geometry" />
        </mxCell>
        <mxCell id="TYAT_m3Qwc5HiXnAlvp4-31" style="edgeStyle=orthogonalEdgeStyle;rounded=0;orthogonalLoop=1;jettySize=auto;html=1;exitX=0;exitY=0.5;exitDx=0;exitDy=0;exitPerimeter=0;entryX=0;entryY=0.5;entryDx=0;entryDy=0;entryPerimeter=0;endArrow=none;endFill=0;strokeWidth=2;fontSize=16;" parent="1" source="TYAT_m3Qwc5HiXnAlvp4-32" target="TYAT_m3Qwc5HiXnAlvp4-33" edge="1">
          <mxGeometry relative="1" as="geometry">
            <Array as="points">
              <mxPoint x="437" y="201" />
              <mxPoint x="437" y="201" />
            </Array>
          </mxGeometry>
        </mxCell>
        <mxCell id="TYAT_m3Qwc5HiXnAlvp4-44" style="edgeStyle=orthogonalEdgeStyle;rounded=0;orthogonalLoop=1;jettySize=auto;html=1;exitX=1;exitY=0;exitDx=0;exitDy=0;exitPerimeter=0;endArrow=none;endFill=0;strokeWidth=2;fontSize=16;" parent="1" source="TYAT_m3Qwc5HiXnAlvp4-32" edge="1">
          <mxGeometry relative="1" as="geometry">
            <mxPoint x="497.0958904109589" y="123.87671232876716" as="targetPoint" />
            <Array as="points">
              <mxPoint x="497" y="121" />
              <mxPoint x="497" y="121" />
            </Array>
          </mxGeometry>
        </mxCell>
        <mxCell id="TYAT_m3Qwc5HiXnAlvp4-32" value="" style="verticalLabelPosition=bottom;shadow=0;dashed=0;align=center;html=1;verticalAlign=top;shape=mxgraph.electrical.transistors.pmos;pointerEvents=1;strokeWidth=2;fontSize=16;" parent="1" vertex="1">
          <mxGeometry x="437" y="121" width="60" height="100" as="geometry" />
        </mxCell>
        <mxCell id="TYAT_m3Qwc5HiXnAlvp4-33" value="" style="verticalLabelPosition=bottom;shadow=0;dashed=0;align=center;html=1;verticalAlign=top;shape=mxgraph.electrical.transistors.nmos;pointerEvents=1;strokeWidth=2;fontSize=16;" parent="1" vertex="1">
          <mxGeometry x="437" y="201" width="60" height="100" as="geometry" />
        </mxCell>
        <mxCell id="TYAT_m3Qwc5HiXnAlvp4-34" value="" style="shape=waypoint;sketch=0;fillStyle=solid;size=6;pointerEvents=1;points=[];fillColor=none;resizable=0;rotatable=0;perimeter=centerPerimeter;snapToPoint=1;strokeWidth=2;fontSize=16;" parent="1" vertex="1">
          <mxGeometry x="427" y="200" width="20" height="20" as="geometry" />
        </mxCell>
        <mxCell id="TYAT_m3Qwc5HiXnAlvp4-35" value="" style="pointerEvents=1;verticalLabelPosition=bottom;shadow=0;dashed=0;align=center;html=1;verticalAlign=top;shape=mxgraph.electrical.signal_sources.protective_earth;strokeWidth=2;fontSize=16;" parent="1" vertex="1">
          <mxGeometry x="486" y="294" width="22" height="20" as="geometry" />
        </mxCell>
        <mxCell id="TYAT_m3Qwc5HiXnAlvp4-43" style="edgeStyle=orthogonalEdgeStyle;rounded=0;orthogonalLoop=1;jettySize=auto;html=1;exitX=0;exitY=0.5;exitDx=0;exitDy=0;exitPerimeter=0;endArrow=none;endFill=0;strokeWidth=2;fontSize=16;" parent="1" source="TYAT_m3Qwc5HiXnAlvp4-38" edge="1">
          <mxGeometry relative="1" as="geometry">
            <mxPoint x="547" y="120" as="targetPoint" />
            <Array as="points">
              <mxPoint x="547" y="243" />
              <mxPoint x="547" y="120" />
            </Array>
          </mxGeometry>
        </mxCell>
        <mxCell id="TYAT_m3Qwc5HiXnAlvp4-38" value="" style="verticalLabelPosition=bottom;shadow=0;dashed=0;align=center;html=1;verticalAlign=top;shape=mxgraph.electrical.transistors.nmos;pointerEvents=1;strokeWidth=2;fontSize=16;" parent="1" vertex="1">
          <mxGeometry x="557" y="193" width="60" height="100" as="geometry" />
        </mxCell>
        <mxCell id="TYAT_m3Qwc5HiXnAlvp4-39" value="" style="pointerEvents=1;verticalLabelPosition=bottom;shadow=0;dashed=0;align=center;html=1;verticalAlign=top;shape=mxgraph.electrical.signal_sources.protective_earth;strokeWidth=2;fontSize=16;" parent="1" vertex="1">
          <mxGeometry x="606" y="290" width="22" height="20" as="geometry" />
        </mxCell>
        <mxCell id="TYAT_m3Qwc5HiXnAlvp4-45" style="edgeStyle=orthogonalEdgeStyle;rounded=0;orthogonalLoop=1;jettySize=auto;html=1;exitX=1;exitY=0;exitDx=0;exitDy=0;exitPerimeter=0;endArrow=none;endFill=0;strokeWidth=2;fontSize=16;" parent="1" source="TYAT_m3Qwc5HiXnAlvp4-40" edge="1">
          <mxGeometry relative="1" as="geometry">
            <mxPoint x="617.0958904109589" y="121.78082191780823" as="targetPoint" />
          </mxGeometry>
        </mxCell>
        <mxCell id="TYAT_m3Qwc5HiXnAlvp4-48" style="edgeStyle=orthogonalEdgeStyle;rounded=0;orthogonalLoop=1;jettySize=auto;html=1;exitX=0;exitY=0.5;exitDx=0;exitDy=0;exitPerimeter=0;entryX=0.5;entryY=0;entryDx=0;entryDy=0;entryPerimeter=0;endArrow=none;endFill=0;strokeWidth=2;fontSize=16;" parent="1" edge="1">
          <mxGeometry relative="1" as="geometry">
            <mxPoint x="557" y="169" as="sourcePoint" />
            <mxPoint x="557" y="294" as="targetPoint" />
            <Array as="points">
              <mxPoint x="557" y="270" />
              <mxPoint x="557" y="270" />
            </Array>
          </mxGeometry>
        </mxCell>
        <mxCell id="TYAT_m3Qwc5HiXnAlvp4-40" value="" style="verticalLabelPosition=bottom;shadow=0;dashed=0;align=center;html=1;verticalAlign=top;shape=mxgraph.electrical.transistors.pmos;pointerEvents=1;strokeWidth=2;fontSize=16;" parent="1" vertex="1">
          <mxGeometry x="557" y="119" width="60" height="100" as="geometry" />
        </mxCell>
        <mxCell id="TYAT_m3Qwc5HiXnAlvp4-41" value="" style="endArrow=none;html=1;rounded=0;strokeWidth=3;fontSize=16;" parent="1" edge="1">
          <mxGeometry width="50" height="50" relative="1" as="geometry">
            <mxPoint x="477" y="120" as="sourcePoint" />
            <mxPoint x="637" y="120" as="targetPoint" />
          </mxGeometry>
        </mxCell>
        <mxCell id="TYAT_m3Qwc5HiXnAlvp4-46" value="" style="endArrow=none;html=1;rounded=0;exitX=1;exitY=0;exitDx=0;exitDy=0;exitPerimeter=0;strokeWidth=2;fontSize=16;" parent="1" source="TYAT_m3Qwc5HiXnAlvp4-40" edge="1">
          <mxGeometry width="50" height="50" relative="1" as="geometry">
            <mxPoint x="587" y="150" as="sourcePoint" />
            <mxPoint x="617" y="120" as="targetPoint" />
          </mxGeometry>
        </mxCell>
        <mxCell id="TYAT_m3Qwc5HiXnAlvp4-47" value="" style="pointerEvents=1;verticalLabelPosition=bottom;shadow=0;dashed=0;align=center;html=1;verticalAlign=top;shape=mxgraph.electrical.signal_sources.protective_earth;strokeWidth=2;fontSize=16;" parent="1" vertex="1">
          <mxGeometry x="546" y="294" width="22" height="20" as="geometry" />
        </mxCell>
        <mxCell id="TYAT_m3Qwc5HiXnAlvp4-49" value="" style="shape=waypoint;sketch=0;fillStyle=solid;size=6;pointerEvents=1;points=[];fillColor=none;resizable=0;rotatable=0;perimeter=centerPerimeter;snapToPoint=1;strokeWidth=2;fontSize=16;" parent="1" vertex="1">
          <mxGeometry x="487" y="200" width="20" height="20" as="geometry" />
        </mxCell>
        <mxCell id="TYAT_m3Qwc5HiXnAlvp4-50" value="" style="shape=waypoint;sketch=0;fillStyle=solid;size=6;pointerEvents=1;points=[];fillColor=none;resizable=0;rotatable=0;perimeter=centerPerimeter;snapToPoint=1;strokeWidth=2;fontSize=16;" parent="1" vertex="1">
          <mxGeometry x="607" y="199" width="20" height="20" as="geometry" />
        </mxCell>
        <mxCell id="TYAT_m3Qwc5HiXnAlvp4-52" value="" style="endArrow=none;html=1;rounded=0;exitX=0.643;exitY=0.591;exitDx=0;exitDy=0;exitPerimeter=0;entryX=0.643;entryY=0.5;entryDx=0;entryDy=0;entryPerimeter=0;strokeWidth=2;fontSize=16;" parent="1" source="TYAT_m3Qwc5HiXnAlvp4-34" target="TYAT_m3Qwc5HiXnAlvp4-49" edge="1">
          <mxGeometry width="50" height="50" relative="1" as="geometry">
            <mxPoint x="587" y="270" as="sourcePoint" />
            <mxPoint x="637" y="220" as="targetPoint" />
          </mxGeometry>
        </mxCell>
        <mxCell id="TYAT_m3Qwc5HiXnAlvp4-53" value="" style="endArrow=none;html=1;rounded=0;entryX=0.552;entryY=0.618;entryDx=0;entryDy=0;entryPerimeter=0;strokeWidth=2;fontSize=16;" parent="1" source="TYAT_m3Qwc5HiXnAlvp4-49" target="TYAT_m3Qwc5HiXnAlvp4-50" edge="1">
          <mxGeometry width="50" height="50" relative="1" as="geometry">
            <mxPoint x="587" y="270" as="sourcePoint" />
            <mxPoint x="637" y="220" as="targetPoint" />
          </mxGeometry>
        </mxCell>
        <mxCell id="TYAT_m3Qwc5HiXnAlvp4-54" value="" style="rounded=1;whiteSpace=wrap;html=1;fillColor=none;dashed=1;fontSize=16;strokeWidth=2;" parent="1" vertex="1">
          <mxGeometry x="418" y="130" width="99" height="160" as="geometry" />
        </mxCell>
        <mxCell id="TYAT_m3Qwc5HiXnAlvp4-55" value="" style="rounded=1;whiteSpace=wrap;html=1;fillColor=none;dashed=1;fontSize=16;strokeWidth=2;" parent="1" vertex="1">
          <mxGeometry x="568" y="130" width="90" height="70" as="geometry" />
        </mxCell>
        <mxCell id="TYAT_m3Qwc5HiXnAlvp4-56" value="" style="rounded=1;whiteSpace=wrap;html=1;fillColor=none;dashed=1;fontSize=16;strokeWidth=2;" parent="1" vertex="1">
          <mxGeometry x="568" y="219" width="90" height="70" as="geometry" />
        </mxCell>
        <mxCell id="TYAT_m3Qwc5HiXnAlvp4-58" value="&lt;font style=&quot;font-size: 16px;&quot;&gt;&lt;i style=&quot;font-size: 16px;&quot;&gt;N&lt;/i&gt;&lt;sub style=&quot;font-size: 16px;&quot;&gt;up&lt;/sub&gt;&lt;/font&gt;" style="text;html=1;strokeColor=none;fillColor=none;align=center;verticalAlign=middle;whiteSpace=wrap;rounded=0;fontSize=16;strokeWidth=2;" parent="1" vertex="1">
          <mxGeometry x="606" y="154" width="60" height="30" as="geometry" />
        </mxCell>
        <mxCell id="TYAT_m3Qwc5HiXnAlvp4-59" value="&lt;font style=&quot;font-size: 16px;&quot;&gt;&lt;i style=&quot;font-size: 16px;&quot;&gt;N&lt;/i&gt;&lt;sub style=&quot;font-size: 16px;&quot;&gt;dn&lt;/sub&gt;&lt;/font&gt;" style="text;html=1;strokeColor=none;fillColor=none;align=center;verticalAlign=middle;whiteSpace=wrap;rounded=0;fontSize=16;strokeWidth=2;" parent="1" vertex="1">
          <mxGeometry x="606" y="229" width="60" height="30" as="geometry" />
        </mxCell>
        <mxCell id="TYAT_m3Qwc5HiXnAlvp4-60" value="&lt;font style=&quot;font-size: 16px;&quot;&gt;&lt;span style=&quot;font-style: italic; font-size: 16px;&quot;&gt;N&lt;/span&gt;&lt;span style=&quot;font-size: 16px;&quot;&gt;&lt;sub style=&quot;font-size: 16px;&quot;&gt;ref&lt;/sub&gt;&lt;/span&gt;&lt;/font&gt;" style="text;html=1;strokeColor=none;fillColor=none;align=center;verticalAlign=middle;whiteSpace=wrap;rounded=0;fontSize=16;strokeWidth=2;" parent="1" vertex="1">
          <mxGeometry x="418" y="259" width="60" height="30" as="geometry" />
        </mxCell>
        <mxCell id="TYAT_m3Qwc5HiXnAlvp4-63" value="&lt;font style=&quot;font-size: 16px;&quot;&gt;Decoder&lt;br style=&quot;font-size: 16px;&quot;&gt;&lt;br style=&quot;font-size: 16px;&quot;&gt;&lt;i style=&quot;font-size: 16px;&quot;&gt;N&lt;/i&gt;&lt;sub style=&quot;font-size: 16px;&quot;&gt;up&lt;/sub&gt;&lt;br style=&quot;font-size: 16px;&quot;&gt;&lt;i style=&quot;font-size: 16px;&quot;&gt;N&lt;/i&gt;&lt;sub style=&quot;font-size: 16px;&quot;&gt;dn&lt;/sub&gt;&lt;br style=&quot;font-size: 16px;&quot;&gt;&lt;i style=&quot;font-size: 16px;&quot;&gt;N&lt;/i&gt;&lt;sub style=&quot;font-size: 16px;&quot;&gt;ref&lt;/sub&gt;&lt;br style=&quot;font-size: 16px;&quot;&gt;&lt;/font&gt;" style="rounded=0;whiteSpace=wrap;html=1;fillColor=none;strokeWidth=2;fontSize=16;" parent="1" vertex="1">
          <mxGeometry x="328" y="130" width="70" height="160" as="geometry" />
        </mxCell>
        <mxCell id="TYAT_m3Qwc5HiXnAlvp4-64" value="&lt;b&gt;Voltage-mode DAC&lt;/b&gt; using tristate-inverter (6b)" style="text;html=1;strokeColor=none;fillColor=none;align=center;verticalAlign=middle;whiteSpace=wrap;rounded=0;fontSize=16;strokeWidth=2;" parent="1" vertex="1">
          <mxGeometry x="313" y="322" width="340" height="30" as="geometry" />
        </mxCell>
        <mxCell id="TYAT_m3Qwc5HiXnAlvp4-65" value="" style="shape=flexArrow;endArrow=classic;html=1;rounded=0;entryX=0;entryY=0.5;entryDx=0;entryDy=0;fillColor=default;strokeWidth=2;fontSize=16;" parent="1" target="TYAT_m3Qwc5HiXnAlvp4-63" edge="1">
          <mxGeometry width="50" height="50" relative="1" as="geometry">
            <mxPoint x="258" y="210" as="sourcePoint" />
            <mxPoint x="157" y="200" as="targetPoint" />
            <Array as="points">
              <mxPoint x="288" y="210" />
            </Array>
          </mxGeometry>
        </mxCell>
        <mxCell id="TYAT_m3Qwc5HiXnAlvp4-71" style="edgeStyle=orthogonalEdgeStyle;rounded=0;orthogonalLoop=1;jettySize=auto;html=1;exitX=0;exitY=0.25;exitDx=0;exitDy=0;exitPerimeter=0;entryX=0.648;entryY=0.996;entryDx=0;entryDy=0;entryPerimeter=0;endArrow=none;endFill=0;strokeWidth=2;fontSize=16;" parent="1" source="TYAT_m3Qwc5HiXnAlvp4-66" target="TYAT_m3Qwc5HiXnAlvp4-70" edge="1">
          <mxGeometry relative="1" as="geometry">
            <Array as="points">
              <mxPoint x="1007" y="439" />
            </Array>
          </mxGeometry>
        </mxCell>
        <mxCell id="TYAT_m3Qwc5HiXnAlvp4-66" value="" style="verticalLabelPosition=bottom;shadow=0;dashed=0;align=center;html=1;verticalAlign=top;shape=mxgraph.electrical.logic_gates.logic_gate;operation=and;negating=1;negSize=0.15;strokeWidth=2;fontSize=16;" parent="1" vertex="1">
          <mxGeometry x="1018" y="424" width="100" height="60" as="geometry" />
        </mxCell>
        <mxCell id="TYAT_m3Qwc5HiXnAlvp4-91" style="edgeStyle=orthogonalEdgeStyle;rounded=0;orthogonalLoop=1;jettySize=auto;html=1;exitX=1;exitY=0.5;exitDx=0;exitDy=0;exitPerimeter=0;entryX=1.014;entryY=0.051;entryDx=0;entryDy=0;entryPerimeter=0;strokeWidth=2;" parent="1" source="TYAT_m3Qwc5HiXnAlvp4-67" target="TYAT_m3Qwc5HiXnAlvp4-86" edge="1">
          <mxGeometry relative="1" as="geometry">
            <Array as="points">
              <mxPoint x="1127" y="370" />
              <mxPoint x="1127" y="77" />
            </Array>
          </mxGeometry>
        </mxCell>
        <mxCell id="TYAT_m3Qwc5HiXnAlvp4-67" value="" style="verticalLabelPosition=bottom;shadow=0;dashed=0;align=center;html=1;verticalAlign=top;shape=mxgraph.electrical.logic_gates.inverter_2;strokeWidth=2;fontSize=16;" parent="1" vertex="1">
          <mxGeometry x="1007" y="340" width="100" height="60" as="geometry" />
        </mxCell>
        <mxCell id="TYAT_m3Qwc5HiXnAlvp4-68" value="" style="shape=waypoint;sketch=0;fillStyle=solid;size=6;pointerEvents=1;points=[];fillColor=none;resizable=0;rotatable=0;perimeter=centerPerimeter;snapToPoint=1;strokeWidth=2;fontSize=16;" parent="1" vertex="1">
          <mxGeometry x="967" y="360" width="20" height="20" as="geometry" />
        </mxCell>
        <mxCell id="TYAT_m3Qwc5HiXnAlvp4-69" value="" style="endArrow=none;html=1;rounded=0;entryX=0;entryY=0.5;entryDx=0;entryDy=0;entryPerimeter=0;strokeWidth=2;fontSize=16;" parent="1" source="TYAT_m3Qwc5HiXnAlvp4-68" target="TYAT_m3Qwc5HiXnAlvp4-67" edge="1">
          <mxGeometry width="50" height="50" relative="1" as="geometry">
            <mxPoint x="987" y="480" as="sourcePoint" />
            <mxPoint x="1037" y="430" as="targetPoint" />
          </mxGeometry>
        </mxCell>
        <mxCell id="TYAT_m3Qwc5HiXnAlvp4-70" value="" style="shape=waypoint;sketch=0;fillStyle=solid;size=6;pointerEvents=1;points=[];fillColor=none;resizable=0;rotatable=0;perimeter=centerPerimeter;snapToPoint=1;strokeWidth=2;fontSize=16;" parent="1" vertex="1">
          <mxGeometry x="997" y="360" width="20" height="20" as="geometry" />
        </mxCell>
        <mxCell id="TYAT_m3Qwc5HiXnAlvp4-74" style="edgeStyle=orthogonalEdgeStyle;rounded=0;orthogonalLoop=1;jettySize=auto;html=1;exitX=0.5;exitY=0;exitDx=0;exitDy=0;exitPerimeter=0;entryX=0;entryY=0.75;entryDx=0;entryDy=0;entryPerimeter=0;endArrow=none;endFill=0;strokeWidth=2;fontSize=16;" parent="1" source="TYAT_m3Qwc5HiXnAlvp4-72" target="TYAT_m3Qwc5HiXnAlvp4-66" edge="1">
          <mxGeometry relative="1" as="geometry">
            <Array as="points">
              <mxPoint x="1017" y="469" />
            </Array>
          </mxGeometry>
        </mxCell>
        <mxCell id="TYAT_m3Qwc5HiXnAlvp4-72" value="" style="pointerEvents=1;verticalLabelPosition=bottom;shadow=0;dashed=0;align=center;html=1;verticalAlign=top;shape=mxgraph.electrical.signal_sources.protective_earth;strokeWidth=2;fontSize=16;" parent="1" vertex="1">
          <mxGeometry x="1006" y="531" width="22" height="20" as="geometry" />
        </mxCell>
        <mxCell id="TYAT_m3Qwc5HiXnAlvp4-78" value="" style="endArrow=none;html=1;rounded=0;entryDx=0;entryDy=0;entryPerimeter=0;exitDx=0;exitDy=0;exitPerimeter=0;strokeWidth=2;fontSize=16;" parent="1" source="TYAT_m3Qwc5HiXnAlvp4-18" target="TYAT_m3Qwc5HiXnAlvp4-77" edge="1">
          <mxGeometry width="50" height="50" relative="1" as="geometry">
            <mxPoint x="777" y="289" as="sourcePoint" />
            <mxPoint x="777" y="209" as="targetPoint" />
          </mxGeometry>
        </mxCell>
        <mxCell id="TYAT_m3Qwc5HiXnAlvp4-77" value="" style="shape=waypoint;sketch=0;fillStyle=solid;size=6;pointerEvents=1;points=[];fillColor=none;resizable=0;rotatable=0;perimeter=centerPerimeter;snapToPoint=1;strokeWidth=2;fontSize=16;" parent="1" vertex="1">
          <mxGeometry x="767" y="199" width="20" height="20" as="geometry" />
        </mxCell>
        <mxCell id="TYAT_m3Qwc5HiXnAlvp4-81" value="" style="endArrow=none;html=1;rounded=0;entryX=0.367;entryY=0.567;entryDx=0;entryDy=0;entryPerimeter=0;strokeWidth=2;exitX=0.629;exitY=0.671;exitDx=0;exitDy=0;exitPerimeter=0;fontSize=16;" parent="1" source="TYAT_m3Qwc5HiXnAlvp4-50" target="TYAT_m3Qwc5HiXnAlvp4-77" edge="1">
          <mxGeometry width="50" height="50" relative="1" as="geometry">
            <mxPoint x="717" y="215.57276995305176" as="sourcePoint" />
            <mxPoint x="857" y="290" as="targetPoint" />
          </mxGeometry>
        </mxCell>
        <mxCell id="TYAT_m3Qwc5HiXnAlvp4-82" value="&lt;font style=&quot;font-size: 16px;&quot;&gt;&lt;i style=&quot;font-size: 16px;&quot;&gt;V&lt;/i&gt;&lt;sub style=&quot;font-size: 16px;&quot;&gt;out&lt;/sub&gt;&lt;/font&gt;" style="text;html=1;strokeColor=none;fillColor=none;align=center;verticalAlign=middle;whiteSpace=wrap;rounded=0;fontSize=16;strokeWidth=2;" parent="1" vertex="1">
          <mxGeometry x="678" y="180" width="60" height="30" as="geometry" />
        </mxCell>
        <mxCell id="TYAT_m3Qwc5HiXnAlvp4-83" value="&lt;span style=&quot;font-size: 16px;&quot;&gt;capacitive load&lt;/span&gt;" style="text;html=1;strokeColor=none;fillColor=none;align=center;verticalAlign=middle;whiteSpace=wrap;rounded=0;fontSize=16;strokeWidth=2;" parent="1" vertex="1">
          <mxGeometry x="1038" y="489" width="80" height="50" as="geometry" />
        </mxCell>
        <mxCell id="TYAT_m3Qwc5HiXnAlvp4-84" value="" style="endArrow=none;html=1;rounded=0;entryX=0.269;entryY=0.364;entryDx=0;entryDy=0;entryPerimeter=0;strokeWidth=2;fontSize=16;" parent="1" target="TYAT_m3Qwc5HiXnAlvp4-16" edge="1">
          <mxGeometry width="50" height="50" relative="1" as="geometry">
            <mxPoint x="258" y="408" as="sourcePoint" />
            <mxPoint x="597" y="380" as="targetPoint" />
          </mxGeometry>
        </mxCell>
        <mxCell id="TYAT_m3Qwc5HiXnAlvp4-85" value="&lt;b&gt;Voltage-controlled delay line&lt;/b&gt; using tristate-inverter" style="text;html=1;strokeColor=none;fillColor=none;align=center;verticalAlign=middle;whiteSpace=wrap;rounded=0;fontSize=16;strokeWidth=2;" parent="1" vertex="1">
          <mxGeometry x="736" y="534" width="231" height="50" as="geometry" />
        </mxCell>
        <mxCell id="TYAT_m3Qwc5HiXnAlvp4-86" value="&lt;b&gt;Controller&lt;/b&gt;&lt;br&gt;&lt;br&gt;One measurement per second&lt;br&gt;&lt;br&gt;Two-digit&lt;br&gt;result display&lt;br&gt;at&lt;br&gt;7-segment&lt;br&gt;LED with &lt;br&gt;0.5s&lt;br&gt;switching" style="rounded=0;whiteSpace=wrap;html=1;strokeWidth=2;fontSize=16;fillColor=#f5f5f5;fontColor=#333333;strokeColor=#666666;align=center;" parent="1" vertex="1">
          <mxGeometry x="138" y="40" width="120" height="720" as="geometry" />
        </mxCell>
        <mxCell id="TYAT_m3Qwc5HiXnAlvp4-87" value="Binary-to-decimal&lt;br&gt;decoder" style="rounded=0;whiteSpace=wrap;html=1;strokeWidth=2;fontSize=16;fillColor=#f5f5f5;fontColor=#333333;strokeColor=#666666;" parent="1" vertex="1">
          <mxGeometry x="317" y="640" width="120" height="120" as="geometry" />
        </mxCell>
        <mxCell id="TYAT_m3Qwc5HiXnAlvp4-88" value="Decimal-to-7-segment decoder" style="rounded=0;whiteSpace=wrap;html=1;strokeWidth=2;fontSize=16;fillColor=#f5f5f5;fontColor=#333333;strokeColor=#666666;" parent="1" vertex="1">
          <mxGeometry x="497" y="640" width="120" height="120" as="geometry" />
        </mxCell>
        <mxCell id="TYAT_m3Qwc5HiXnAlvp4-90" value="" style="rounded=0;whiteSpace=wrap;html=1;strokeWidth=2;fillColor=#f5f5f5;fontColor=#333333;strokeColor=#666666;" parent="1" vertex="1">
          <mxGeometry x="678" y="640" width="120" height="120" as="geometry" />
        </mxCell>
        <mxCell id="TYAT_m3Qwc5HiXnAlvp4-89" value="" style="verticalLabelPosition=bottom;shadow=0;dashed=0;align=center;html=1;verticalAlign=top;shape=mxgraph.electrical.opto_electronics.7_segment_display_with_dp;pointerEvents=1;strokeWidth=2;" parent="1" vertex="1">
          <mxGeometry x="698.1" y="651.55" width="79.8" height="96.9" as="geometry" />
        </mxCell>
        <mxCell id="TYAT_m3Qwc5HiXnAlvp4-93" value="" style="endArrow=classic;html=1;rounded=0;strokeWidth=2;" parent="1" edge="1">
          <mxGeometry width="50" height="50" relative="1" as="geometry">
            <mxPoint x="98" y="441" as="sourcePoint" />
            <mxPoint x="138" y="441" as="targetPoint" />
          </mxGeometry>
        </mxCell>
        <mxCell id="TYAT_m3Qwc5HiXnAlvp4-94" value="CLK" style="text;html=1;strokeColor=none;fillColor=none;align=right;verticalAlign=middle;whiteSpace=wrap;rounded=0;fontSize=16;strokeWidth=2;labelPosition=center;verticalLabelPosition=middle;" parent="1" vertex="1">
          <mxGeometry x="28" y="340" width="60" height="39" as="geometry" />
        </mxCell>
        <mxCell id="TYAT_m3Qwc5HiXnAlvp4-95" value="RESET" style="text;html=1;strokeColor=none;fillColor=none;align=right;verticalAlign=middle;whiteSpace=wrap;rounded=0;fontSize=16;strokeWidth=2;labelPosition=center;verticalLabelPosition=middle;" parent="1" vertex="1">
          <mxGeometry x="28" y="420" width="60" height="39" as="geometry" />
        </mxCell>
        <mxCell id="TYAT_m3Qwc5HiXnAlvp4-97" value="" style="shape=flexArrow;endArrow=classic;html=1;rounded=0;entryX=0;entryY=0.5;entryDx=0;entryDy=0;exitX=0.994;exitY=0.918;exitDx=0;exitDy=0;exitPerimeter=0;fontSize=11;strokeWidth=2;" parent="1" source="TYAT_m3Qwc5HiXnAlvp4-86" target="TYAT_m3Qwc5HiXnAlvp4-87" edge="1">
          <mxGeometry width="50" height="50" relative="1" as="geometry">
            <mxPoint x="268" y="760" as="sourcePoint" />
            <mxPoint x="318" y="710" as="targetPoint" />
          </mxGeometry>
        </mxCell>
        <mxCell id="TYAT_m3Qwc5HiXnAlvp4-98" value="" style="shape=flexArrow;endArrow=classic;html=1;rounded=0;entryX=0;entryY=0.5;entryDx=0;entryDy=0;fontSize=11;strokeWidth=2;exitX=0.992;exitY=0.504;exitDx=0;exitDy=0;exitPerimeter=0;" parent="1" source="TYAT_m3Qwc5HiXnAlvp4-87" target="TYAT_m3Qwc5HiXnAlvp4-88" edge="1">
          <mxGeometry width="50" height="50" relative="1" as="geometry">
            <mxPoint x="438" y="700" as="sourcePoint" />
            <mxPoint x="487" y="699.5" as="targetPoint" />
          </mxGeometry>
        </mxCell>
        <mxCell id="TYAT_m3Qwc5HiXnAlvp4-99" value="" style="shape=flexArrow;endArrow=classic;html=1;rounded=0;entryX=0;entryY=0.5;entryDx=0;entryDy=0;fontSize=11;strokeWidth=2;exitX=0.992;exitY=0.504;exitDx=0;exitDy=0;exitPerimeter=0;" parent="1" edge="1">
          <mxGeometry width="50" height="50" relative="1" as="geometry">
            <mxPoint x="617" y="699.5" as="sourcePoint" />
            <mxPoint x="678" y="699.5" as="targetPoint" />
          </mxGeometry>
        </mxCell>
        <mxCell id="TYAT_m3Qwc5HiXnAlvp4-102" value="" style="endArrow=classic;html=1;rounded=0;strokeWidth=2;" parent="1" edge="1">
          <mxGeometry width="50" height="50" relative="1" as="geometry">
            <mxPoint x="98" y="360" as="sourcePoint" />
            <mxPoint x="138" y="360.35" as="targetPoint" />
          </mxGeometry>
        </mxCell>
        <mxCell id="TYAT_m3Qwc5HiXnAlvp4-103" value="This complete mixed-signal design is synthesized from a Verilog description using the OpenLane/OpenROAD flow and only digital standard cells available in the SKY130 library." style="text;html=1;strokeColor=none;fillColor=none;align=left;verticalAlign=middle;whiteSpace=wrap;rounded=0;fontSize=20;" parent="1" vertex="1">
          <mxGeometry x="308" y="430" width="380" height="150" as="geometry" />
        </mxCell>
        <mxCell id="JVz7hkCXj1uAFaqGwZjH-2" value="" style="shape=flexArrow;endArrow=classic;html=1;rounded=0;entryX=0;entryY=0.5;entryDx=0;entryDy=0;fillColor=default;strokeWidth=2;fontSize=16;" parent="1" edge="1">
          <mxGeometry width="50" height="50" relative="1" as="geometry">
            <mxPoint x="98" y="721" as="sourcePoint" />
            <mxPoint x="138" y="721" as="targetPoint" />
            <Array as="points">
              <mxPoint x="98" y="721" />
            </Array>
          </mxGeometry>
        </mxCell>
        <mxCell id="JVz7hkCXj1uAFaqGwZjH-3" value="" style="endArrow=classic;html=1;rounded=0;strokeWidth=2;" parent="1" edge="1">
          <mxGeometry width="50" height="50" relative="1" as="geometry">
            <mxPoint x="98" y="561" as="sourcePoint" />
            <mxPoint x="138" y="561" as="targetPoint" />
          </mxGeometry>
        </mxCell>
        <mxCell id="JVz7hkCXj1uAFaqGwZjH-4" value="" style="endArrow=classic;html=1;rounded=0;strokeWidth=2;" parent="1" edge="1">
          <mxGeometry width="50" height="50" relative="1" as="geometry">
            <mxPoint x="98" y="601" as="sourcePoint" />
            <mxPoint x="138" y="601" as="targetPoint" />
          </mxGeometry>
        </mxCell>
        <mxCell id="JVz7hkCXj1uAFaqGwZjH-5" value="" style="endArrow=classic;html=1;rounded=0;strokeWidth=2;" parent="1" edge="1">
          <mxGeometry width="50" height="50" relative="1" as="geometry">
            <mxPoint x="98" y="641" as="sourcePoint" />
            <mxPoint x="138" y="641" as="targetPoint" />
          </mxGeometry>
        </mxCell>
        <mxCell id="JVz7hkCXj1uAFaqGwZjH-6" value="&lt;font style=&quot;font-size: 16px;&quot;&gt;Calibration&lt;br style=&quot;font-size: 16px;&quot;&gt;&lt;/font&gt;" style="rounded=0;whiteSpace=wrap;html=1;fillColor=none;strokeWidth=2;fontSize=16;dashed=1;" parent="1" vertex="1">
          <mxGeometry x="148" y="550" width="100" height="100" as="geometry" />
        </mxCell>
        <mxCell id="JVz7hkCXj1uAFaqGwZjH-7" value="CAL_ENA" style="text;html=1;strokeColor=none;fillColor=none;align=right;verticalAlign=middle;whiteSpace=wrap;rounded=0;fontSize=16;strokeWidth=2;labelPosition=center;verticalLabelPosition=middle;" parent="1" vertex="1">
          <mxGeometry x="10" y="540" width="78" height="39" as="geometry" />
        </mxCell>
        <mxCell id="JVz7hkCXj1uAFaqGwZjH-8" value="CAL_CLK" style="text;html=1;strokeColor=none;fillColor=none;align=right;verticalAlign=middle;whiteSpace=wrap;rounded=0;fontSize=16;strokeWidth=2;labelPosition=center;verticalLabelPosition=middle;" parent="1" vertex="1">
          <mxGeometry x="10" y="580.5" width="78" height="39" as="geometry" />
        </mxCell>
        <mxCell id="JVz7hkCXj1uAFaqGwZjH-9" value="CAL_DAT" style="text;html=1;strokeColor=none;fillColor=none;align=right;verticalAlign=middle;whiteSpace=wrap;rounded=0;fontSize=16;strokeWidth=2;labelPosition=center;verticalLabelPosition=middle;" parent="1" vertex="1">
          <mxGeometry x="10" y="620.5" width="78" height="39" as="geometry" />
        </mxCell>
        <mxCell id="JVz7hkCXj1uAFaqGwZjH-10" value="DBG[2:0]" style="text;html=1;strokeColor=none;fillColor=none;align=right;verticalAlign=middle;whiteSpace=wrap;rounded=0;fontSize=16;strokeWidth=2;labelPosition=center;verticalLabelPosition=middle;" parent="1" vertex="1">
          <mxGeometry x="10" y="700.5" width="78" height="39" as="geometry" />
        </mxCell>
        <mxCell id="ArpLkf8-aVes9UoR7aM2-1" value="(c) 2023 H. Pretl, IIC@JKU" style="text;html=1;strokeColor=none;fillColor=none;align=left;verticalAlign=middle;whiteSpace=wrap;rounded=0;fontSize=12;" vertex="1" parent="1">
          <mxGeometry x="997" y="745.45" width="157" height="14.55" as="geometry" />
        </mxCell>
      </root>
    </mxGraphModel>
  </diagram>
</mxfile>
